# xmcd
#
# Track frame offsets:
#	150
#	10415
#	21445
#	32827
#	46217
#	58497
#	69070
#	84392
#	100685
#	114635
#	127617
#	143162
#	156435
#	174790
#	188527
#	201145
#	221332
#	234697
#	249717
#	264380
#	279572
#	295782
#	317407
#	328045
#
# Disc length: 4582
#
# Revision: 2
# Processed by: cddbd v1.5.1PL0 Copyright (c) Steve Scherf et al.
# Submitted via: CDex 1.51
# Normalized: r0:TDELIM( - ),TSWAP
#
DISCID=4e11e418
DTITLE=Various Artist - The Best of Jazz
DYEAR=1900
DGENRE=Jazz
TTITLE0=Ella Fitzgerald - T'Aint what you do
TTITLE1=Jimmy Witherspoon - St Louis Blues
TTITLE2=Dinah Washington - What a difference a day makes
TTITLE3=King Pleasure - I'm in the mood for love
TTITLE4=Louis Armstrong - Basin street blues
TTITLE5=Cleo Laine and Johnny Dankworth - Our love is here to stay
TTITLE6=Billie Holiday - Loverman
TTITLE7=Fats Waller - Ain't misbehavin'
TTITLE8=Mel Torme - Guilty
TTITLE9=Sarah Vaughn - Tenderly
TTITLE10=Fletcher Henderson - Tiger rag
TTITLE11=Billie Holiday - May man
TTITLE12=Jean Luc Ponty - Bowing, bowing
TTITLE13=Charlie Parker and Dizzy Gillespie - Crazeology
TTITLE14=Charlie Mingus - Four hands
TTITLE15=Sonny Rollins - Sonny moon for two
TTITLE16=Miles Davis - Scrapple from the apple
TTITLE17=Teddy Wilson - How high the moon
TTITLE18=Duke Ellington - Harlem Speaks
TTITLE19=Louis Armstrong - On the sunny side of the street
TTITLE20=Billie Holiday - Ghost of a chance
TTITLE21=Duke Ellington - Everything goes
TTITLE22=Louis Armstrong - Mame
TTITLE23=Cannonball Adderley - The tune of the hicjory stick
EXTD=
EXTT0=
EXTT1=
EXTT2=
EXTT3=
EXTT4=
EXTT5=
EXTT6=
EXTT7=
EXTT8=
EXTT9=
EXTT10=
EXTT11=
EXTT12=
EXTT13=
EXTT14=
EXTT15=
EXTT16=
EXTT17=
EXTT18=
EXTT19=
EXTT20=
EXTT21=
EXTT22=
EXTT23=
PLAYORDER=
